<?xml version="1.0" encoding="UTF-8"?>
<svg
  width="24"
  height="24"
  viewBox="0 0 24 24"
  version="1.1"
  id="edit"
  xmlns="http://www.w3.org/2000/svg"
  xmlns:svg="http://www.w3.org/2000/svg">
  <path
    fill="currentColor"
    d="m 13.96,5.46 4.58,4.58 c 0.391177,0.394398 1.028823,0.394398 1.42,0 l 1.38,-1.38 c 0.775447,-0.7800749 0.775447,-2.0399251 0,-2.82 L 18.16,2.66 c -0.780075,-0.7754472 -2.039925,-0.7754472 -2.82,0 l -1.38,1.38 c -0.394398,0.3911769 -0.394398,1.0288231 0,1.42 z M 2.11,20.16 2.84,15.94 c 0.1041727,-0.609366 0.3940564,-1.171671 0.83,-1.61 l 7.87,-7.87 c 0.391177,-0.3943978 1.028823,-0.3943978 1.42,0 l 4.58,4.58 c 0.232387,0.230489 0.291179,0.39517 0.293302,0.573569 0.0028,0.232955 -0.228105,0.420368 -0.461907,0.420741 l -6.765606,0.0108 a 1.1034952,1.1034952 134.849 0 0 -1.1017257,1.107548 l 0.025312,6.88828 C 9.5234166,20.771946 8.6758035,21.053881 8.07,21.16 L 3.84,21.89 C 2.8214317,22.063005 1.9369945,21.178568 2.11,20.16 Z"
    id="edit-pencil" />
  <path
    fill="currentColor"
    d="m 16.882784,13.065225 v 1.18036 c 0,0.114815 -0.01081,0.242036 -0.005,0.362131 0.0017,0.170559 1.3e-5,0.643966 1.3e-5,0.643966 l 0.466633,-0.902763 0.6365,-1.37319 c 0.06556,-0.141431 0.207261,-0.231936 0.363147,-0.231936 h 0.950856 c 0.190855,0 0.316076,0.199513 0.233091,0.371383 l -1.370698,2.838868 1.586319,4.687734 c 0.04982,0.147227 -0.05967,0.299865 -0.215096,0.299865 h -0.961895 c -0.203488,0 -0.384331,-0.129725 -0.449552,-0.322478 l -0.972451,-2.873995 -0.26178,0.385781 v 2.375364 c -1e-6,0.240425 -0.194904,0.435328 -0.435329,0.435328 h -0.672395 c -0.282323,0 -0.511191,-0.228868 -0.511191,-0.511191 v -7.237969 c 0,-0.247805 0.200886,-0.448691 0.448691,-0.448691 h 0.84878 c 0.177522,0 0.321433,0.143911 0.321432,0.321433 z"
    id="edit-k" />
  <path
    fill="currentColor"
    d="m 10.582318,12.743793 h 2.098204 c 0.61082,0 1.09075,0.227336 1.439791,0.682007 0.165334,0.215853 0.293928,0.482226 0.385781,0.799118 0.09185,0.316891 0.137779,0.670524 0.137779,1.060898 0,0.303114 -0.02756,0.587857 -0.08267,0.85423 -0.05511,0.26178 -0.142372,0.500597 -0.26178,0.716451 -0.114816,0.206668 -0.250299,0.381188 -0.406448,0.52356 -0.151557,0.142371 -0.332966,0.252594 -0.544227,0.330669 -0.202076,0.07348 -0.424819,0.110223 -0.668229,0.110223 H 11.88829 v 2.688114 a 0.43257964,0.43257964 0 0 1 -0.43258,0.43258 h -0.802956 a 0.38336761,0.38336761 0 0 1 -0.383367,-0.383368 v -7.501553 a 0.31292878,0.31292878 0 0 1 0.312928,-0.312929 z m 1.305975,3.561587 h 0.378892 c 0.08267,0 0.165335,-0.01148 0.248002,-0.03444 0.08267,-0.02755 0.158446,-0.07578 0.227336,-0.144667 0.0643,-0.06429 0.114815,-0.133183 0.151556,-0.206669 0.04133,-0.07348 0.07578,-0.169927 0.103335,-0.289336 0.0092,-0.05052 0.01607,-0.103335 0.02067,-0.158445 0.0046,-0.05971 0.0069,-0.121707 0.0069,-0.186002 0,-0.119409 -0.01148,-0.231928 -0.03444,-0.337559 -0.01837,-0.110223 -0.05052,-0.208964 -0.09644,-0.296224 -0.04593,-0.08267 -0.09874,-0.151558 -0.158446,-0.206669 -0.05511,-0.05971 -0.124001,-0.107929 -0.206669,-0.144668 -0.07348,-0.02755 -0.160742,-0.04133 -0.26178,-0.04133 h -0.378893 z"
    id="edit-p" />
</svg>
